<svg xmlns="http://www.w3.org/2000/svg" xmlns:xlink="http://www.w3.org/1999/xlink" xmlns:svgjs="http://svgjs.com/svgjs" width="288" height="288" version="1.1" style=""><rect id="backgroundrect" width="100%" height="100%" x="0" y="0" fill="none" stroke="none"/><defs id="SvgjsDefs1012"/><g class="currentLayer" style=""><title>Layer 1</title><g id="SvgjsG1013" class="selected" transform="" fill="#ffffff" fill-opacity="1" stroke="#ffffff" stroke-opacity="1"><svg xmlns="http://www.w3.org/2000/svg" enable-background="new 0 0 270.176 270.176" viewBox="0 0 270.176 270.176" width="288" height="288" id="svg_1"><path d="M135.088,0C60.6,0,0,60.604,0,135.088s60.6,135.088,135.088,135.088s135.088-60.6,135.088-135.088S209.576,0,135.088,0z      M135.088,263.92c-71.04,0-128.832-57.792-128.832-128.828S64.048,6.264,135.088,6.264S263.92,64.048,263.92,135.088     S206.124,263.92,135.088,263.92z" fill="#ffffff" class="color000 svgShape" id="svg_2" fill-opacity="1" stroke="#ffffff" stroke-opacity="1"/><path d="M135.088 25.504c-62.408 0-113.176 50.776-113.176 113.18 0 11.108 1.628 22.128 4.832 32.752l3.656 2.152c22.484-4.884 47.164-8.096 73.348-9.544.352-.02.676-.132.984-.256l12.684 32.032c-.184.16-.356.34-.48.564-2.008 3.616-3.072 7.724-3.072 11.876 0 13.492 10.98 24.476 24.48 24.476 13.496 0 24.476-10.98 24.476-24.476 0-9.368-5.216-17.772-13.616-21.936-1.084-.532-2.396-.088-2.932.988-.536 1.088-.096 2.396.992 2.936 6.896 3.42 11.176 10.324 11.176 18.016 0 11.08-9.016 20.092-20.096 20.092s-20.096-9.012-20.096-20.092c0-2.416.46-4.812 1.3-7.06l3.792 9.572c.728 2.996 3.556 5.88 7.2 7.34 1.712.688 3.492 1.024 5.276 1.024 2.704 0 5.396-.78 7.824-2.308 8.348-4.372 8.148-13.192 5.996-17.852l-46.788-88.312c-2.356-5.108-7.9-7.58-12.364-5.528-2.22 1.02-3.828 2.988-4.52 5.536-.656 2.404-.408 5.052.652 7.34l15.78 39.848c-19.756 1.128-38.632 3.28-56.408 6.364-1.628-7.052-2.496-14.164-2.496-21.192 0-2.056.172-4.068.3-6.092.324.192.684.332 1.092.332H58.68c1.208 0 2.188-.976 2.188-2.188 0-1.208-.98-2.188-2.188-2.188H44.884c-.3 0-.588.06-.848.172 2.48-23.632 13.712-44.576 30.252-59.524.104.296.26.58.5.82l6.908 6.904c.428.428.988.644 1.548.644s1.12-.216 1.552-.644c.856-.856.856-2.24-.004-3.096l-6.912-6.904c-.172-.176-.384-.292-.592-.392 15.056-12.456 34.072-20.044 54.784-20.552v13.78c0 1.212.98 2.188 2.188 2.188s2.192-.976 2.192-2.188v-13.78c23.516.576 44.824 10.312 60.656 25.884l-9.64 8.308c-.916.788-1.02 2.172-.232 3.092.432.5 1.048.76 1.66.76.508 0 1.016-.176 1.428-.532l9.82-8.464c13.24 14.324 22.116 32.896 24.32 53.524h-8.532c-1.208 0-2.192.98-2.192 2.188 0 1.212.98 2.188 2.192 2.188h8.816c.116 1.916.284 3.816.284 5.76 0 6.864-.832 13.812-2.388 20.708-22.932-4.228-45.98-6.724-77.352-6.724-1.728 0-3.128 1.404-3.128 3.132 0 1.728 1.4 3.128 3.128 3.128 39.168 0 65.192 3.944 94.48 10.308l3.66-2.152c3.208-10.624 4.832-21.644 4.832-32.752C248.264 76.28 197.492 25.504 135.088 25.504zM90.636 116.296c-.676-1.468-.836-3.056-.448-4.468.348-1.276 1.104-2.236 2.128-2.712.468-.216.968-.312 1.48-.312 1.936 0 4.036 1.46 5.124 3.812l46.792 88.312c1.024 2.224 2.28 8.736-4.172 12.064l-.176.1c-3.884 2.496-7.424 1.684-9.192.964-2.684-1.08-4.256-2.988-4.668-4.6L90.636 116.296zM238.24 166.86c-3.796-.812-7.548-1.576-11.288-2.3 1.604-7.16 2.46-14.38 2.46-21.52 0-2.676-.132-5.32-.344-7.94v-.012c0-.004-.004-.012-.004-.016-1.86-23.296-11.78-44.288-26.916-60.056-.04-.056-.052-.124-.1-.176-.068-.08-.16-.116-.24-.184-17.252-17.788-41.16-28.824-67.552-28.824-52.468 0-95.152 43.604-95.152 97.208 0 7.3.9 14.684 2.576 22-3.26.6-6.564 1.16-9.74 1.824-2.504-9.176-3.772-18.644-3.772-28.18 0-58.956 47.964-106.916 106.92-106.916s106.92 47.96 106.92 106.916C242.008 148.22 240.74 157.684 238.24 166.86zM219.824 209.768c-8.976 9.572-19.348 17.32-31.064 23.232-2.536 1.28-.304 5.088 2.228 3.812 12.036-6.072 22.736-14.088 31.956-23.92C224.884 210.816 221.772 207.688 219.824 209.768zM234.628 190.728c-1.936 4.044-4.472 7.632-7.668 10.78-2.028 1.996 1.096 5.12 3.12 3.124 3.448-3.392 6.268-7.312 8.36-11.676C239.66 190.404 235.86 188.16 234.628 190.728z" fill="#ffffff" class="color000 svgShape" id="svg_3" fill-opacity="1" stroke="#ffffff" stroke-opacity="1"/></svg></g></g></svg>