<svg xmlns="http://www.w3.org/2000/svg" xmlns:xlink="http://www.w3.org/1999/xlink" xmlns:svgjs="http://svgjs.com/svgjs" width="288" height="288" version="1.1" style=""><rect id="backgroundrect" width="100%" height="100%" x="0" y="0" fill="none" stroke="none"/><defs id="SvgjsDefs1018"/><g class="currentLayer" style=""><title>Layer 1</title><g id="SvgjsG1019" class="selected" transform="" fill="#ffffff" fill-opacity="1"><svg xmlns="http://www.w3.org/2000/svg" enable-background="new 0 0 512.009 512.009" viewBox="0 0 512.009 512.009" width="288" height="288" id="svg_1"><path d="M256.009,42.671c-0.002,0-0.005,0-0.007,0c-0.001,0-0.001,0-0.002,0c-0.001,0-0.002,0-0.003,0     c-70.671,0.003-134.648,28.637-180.967,74.935c-0.016,0.016-0.034,0.029-0.05,0.045c-0.017,0.017-0.03,0.035-0.047,0.052     C28.688,163.976,0.072,227.867,0.011,298.445C0.011,298.521,0,298.595,0,298.671c0,0.073,0.01,0.143,0.011,0.215     c0.05,60.201,20.962,117.239,58.515,162.704c4.053,4.907,10.084,7.748,16.448,7.748h362.048c6.364,0,12.395-2.841,16.448-7.748     c37.607-45.53,58.539-102.65,58.539-162.919C512.009,157.289,397.391,42.671,256.009,42.671z M426.68,426.671H85.316     c-23.281-30.977-37.712-67.661-41.583-106.667h62.934c11.782,0,21.333-9.551,21.333-21.333c0-11.782-9.551-21.333-21.333-21.333     H43.734c4.259-42.905,21.23-82.066,47.091-113.671l14.32,14.32c8.331,8.331,21.839,8.331,30.17,0     c8.331-8.331,8.331-21.839,0-30.17l-14.321-14.321c31.605-25.864,70.765-42.837,113.672-47.098v62.941     c0,11.782,9.551,21.333,21.333,21.333c11.782,0,21.333-9.551,21.333-21.333V86.396c42.906,4.259,82.068,21.232,113.676,47.096     l-14.325,14.325c-8.331,8.331-8.331,21.839,0,30.17c8.331,8.331,21.839,8.331,30.17,0l14.326-14.326     c25.867,31.607,42.842,70.771,47.103,113.677h-62.95c-11.782,0-21.333,9.551-21.333,21.333c0,11.782,9.551,21.333,21.333,21.333     h62.95C464.409,359.001,449.97,395.686,426.68,426.671z" fill="#ffffff" class="color000 svgShape" id="svg_2" fill-opacity="1"/><polygon points="319.991 220.655 199.33 281.007 259.661 341.338" fill="#ffffff" class="color000 svgShape" id="svg_3" fill-opacity="1"/><path d="M320,362.671H192c-11.782,0-21.333,9.551-21.333,21.333s9.551,21.333,21.333,21.333h128     c11.782,0,21.333-9.551,21.333-21.333S331.782,362.671,320,362.671z" fill="#ffffff" class="color000 svgShape" id="svg_4" fill-opacity="1"/></svg></g></g></svg>