<svg xmlns="http://www.w3.org/2000/svg" xmlns:xlink="http://www.w3.org/1999/xlink" xmlns:svgjs="http://svgjs.com/svgjs" width="288" height="288" version="1.1" style=""><rect id="backgroundrect" width="100%" height="100%" x="0" y="0" fill="none" stroke="none"/><defs id="SvgjsDefs1038"/><g class="currentLayer" style=""><title>Layer 1</title><g id="SvgjsG1039" class="selected" transform="" fill="#ffffff" fill-opacity="1"><svg xmlns="http://www.w3.org/2000/svg" enable-background="new 0 0 299.998 299.998" viewBox="0 0 299.998 299.998" width="288" height="288" id="svg_1"><rect width="93.36900329589844" height="10.37399959564209" x="103.31300354003906" y="111.74700164794922" fill="#ffffff" class="color000 svgShape" id="svg_2" fill-opacity="1"/><rect width="93.36900329589844" height="10.37399959564209" x="103.31300354003906" y="157.7729949951172" fill="#ffffff" class="color000 svgShape" id="svg_3" fill-opacity="1"/><rect width="93.36900329589844" height="10.37399959564209" x="103.31300354003906" y="134.75999450683594" fill="#ffffff" class="color000 svgShape" id="svg_4" fill-opacity="1"/><path d="M149.995,0C67.156,0,0,67.159,0,149.997c0,82.837,67.156,150,149.995,150s150.003-67.163,150.003-150     C299.997,67.159,232.834,0,149.995,0z M185.688,64.565l31.517,28.669h-31.517V64.565z M170.775,214.576v16.41v4.445h-69.76     c-10.068,0-18.225-8.159-18.225-18.225V82.79c0-10.066,8.159-18.225,18.225-18.225h76.889v36.45h39.298v79.763h-12.628H194.2     v0.01h-90.887v10.374h90.89v12.639h-90.89v10.374h67.462V214.576z M244.409,230.987h-23.425v23.425h-16.407v-23.425h-23.428     v-16.41h23.428v-23.425h16.407v23.425h23.425C244.409,214.578,244.409,230.987,244.409,230.987z" fill="#ffffff" class="color000 svgShape" id="svg_5" fill-opacity="1"/></svg></g></g></svg>